<svg data-v-423bf9ae="" xmlns="http://www.w3.org/2000/svg" viewBox="0 0 664 177" class="iconLeft"><!----><defs data-v-423bf9ae=""><linearGradient data-v-423bf9ae="" gradientTransform="rotate(25)" id="088e5724-47d7-4ac9-ab82-156f0684ee24" x1="0%" y1="0%" x2="100%" y2="0%"><stop data-v-423bf9ae="" offset="0%" style="stop-color: rgb(9, 120, 166); stop-opacity: 1;"></stop><stop data-v-423bf9ae="" offset="100%" style="stop-color: rgb(251, 148, 71); stop-opacity: 1;"></stop></linearGradient></defs><!----><g data-v-423bf9ae="" id="049f0a28-4d15-460f-9236-5e40238adaaf" fill="#ffffff" transform="matrix(4.89396401956448,0,0,4.89396401956448,188.44692348505393,44.74864068661516)"><path d="M1.85 3.08L5.60 3.08Q5.91 3.08 6.19 3.20Q6.47 3.32 6.68 3.53Q6.88 3.74 7.00 4.02Q7.12 4.29 7.12 4.60L7.12 4.60L7.12 6.41Q7.12 6.79 6.95 7.12Q6.78 7.44 6.49 7.65L6.49 7.65Q6.74 7.71 6.95 7.85Q7.16 7.99 7.31 8.19Q7.46 8.38 7.55 8.62Q7.64 8.86 7.64 9.13L7.64 9.13L7.64 11.27Q7.64 11.59 7.52 11.86Q7.40 12.14 7.19 12.35Q6.99 12.56 6.71 12.68Q6.43 12.80 6.12 12.80L6.12 12.80L1.05 12.80L1.05 3.97Q1.05 3.66 1.06 3.48Q1.07 3.30 1.15 3.21Q1.22 3.12 1.38 3.10Q1.54 3.08 1.85 3.08L1.85 3.08ZM4.05 3.45L2.60 3.45L2.60 7.61L4.05 7.61Q4.48 7.61 4.77 7.53Q5.07 7.45 5.26 7.27Q5.44 7.10 5.52 6.80Q5.60 6.51 5.60 6.08L5.60 6.08L5.60 4.94Q5.60 4.51 5.52 4.22Q5.44 3.94 5.26 3.76Q5.07 3.59 4.77 3.52Q4.48 3.45 4.05 3.45L4.05 3.45ZM4.57 7.94L2.60 7.94L2.60 12.46L4.57 12.46Q5.00 12.46 5.30 12.38Q5.59 12.30 5.78 12.13Q5.96 11.95 6.04 11.66Q6.12 11.38 6.12 10.94L6.12 10.94L6.12 9.45Q6.12 9.02 6.04 8.74Q5.96 8.45 5.78 8.27Q5.59 8.09 5.30 8.02Q5.00 7.94 4.57 7.94L4.57 7.94ZM11.93 9.09L9.39 9.09Q9.39 8.93 9.43 8.84Q9.47 8.76 9.57 8.72Q9.67 8.69 9.82 8.69Q9.98 8.69 10.22 8.69L10.22 8.69L12.76 8.69Q12.76 8.85 12.71 8.93Q12.67 9.02 12.58 9.05Q12.48 9.08 12.32 9.09Q12.16 9.09 11.93 9.09L11.93 9.09ZM15.26 3.08L19.35 3.08Q19.67 3.08 19.94 3.20Q20.22 3.32 20.43 3.53Q20.64 3.74 20.76 4.02Q20.88 4.30 20.88 4.61L20.88 4.61L20.88 6.42Q20.88 6.73 20.76 7.01Q20.64 7.29 20.43 7.50Q20.22 7.71 19.94 7.83Q19.67 7.95 19.35 7.95L19.35 7.95L17.83 7.95L20.90 12.14Q20.99 12.26 21.07 12.37Q21.16 12.48 21.26 12.57Q21.36 12.65 21.48 12.71Q21.59 12.77 21.76 12.78L21.76 12.78Q21.76 12.80 21.75 12.80L21.75 12.80L20.32 12.80Q20.13 12.80 19.95 12.77Q19.77 12.73 19.60 12.63Q19.43 12.54 19.26 12.37Q19.09 12.21 18.90 11.96L18.90 11.96L16.02 7.95L16.02 11.21Q16.02 11.66 15.96 11.96Q15.89 12.26 15.71 12.45Q15.54 12.64 15.24 12.72Q14.94 12.80 14.49 12.80L14.49 12.80L14.49 4.01Q14.49 3.66 14.50 3.47Q14.51 3.28 14.58 3.20Q14.66 3.11 14.81 3.10Q14.97 3.08 15.26 3.08L15.26 3.08ZM17.81 3.43L16.02 3.43L16.02 7.60L17.81 7.60Q18.24 7.60 18.54 7.53Q18.83 7.45 19.02 7.27Q19.20 7.10 19.28 6.81Q19.37 6.51 19.37 6.08L19.37 6.08L19.37 4.95Q19.37 4.52 19.28 4.23Q19.20 3.94 19.02 3.76Q18.83 3.58 18.54 3.51Q18.24 3.43 17.81 3.43L17.81 3.43ZM23.06 2.75L23.06 2.75Q23.23 2.75 23.39 2.82Q23.54 2.89 23.66 3.01Q23.78 3.12 23.84 3.28Q23.91 3.44 23.91 3.62L23.91 3.62Q23.91 3.79 23.84 3.95Q23.78 4.12 23.66 4.23Q23.54 4.35 23.39 4.43Q23.23 4.50 23.06 4.50L23.06 4.50Q22.88 4.50 22.72 4.43Q22.57 4.35 22.45 4.23Q22.33 4.12 22.25 3.95Q22.18 3.79 22.18 3.62L22.18 3.62Q22.18 3.45 22.25 3.29Q22.33 3.13 22.45 3.01Q22.57 2.89 22.72 2.82Q22.88 2.75 23.06 2.75ZM23.82 5.15L23.82 11.22Q23.82 11.66 23.74 11.97Q23.67 12.27 23.50 12.46Q23.32 12.64 23.03 12.72Q22.73 12.80 22.28 12.80L22.28 12.80L22.28 6.78Q22.28 6.32 22.36 6.01Q22.44 5.70 22.62 5.51Q22.80 5.32 23.10 5.23Q23.39 5.15 23.82 5.15L23.82 5.15ZM29.65 10.94L29.65 5.61L28.62 5.61Q28.18 5.61 27.89 5.69Q27.60 5.76 27.42 5.94Q27.23 6.12 27.16 6.41Q27.08 6.70 27.08 7.12L27.08 7.12L27.08 10.94Q27.08 11.33 27.15 11.61Q27.21 11.89 27.36 12.08Q27.51 12.27 27.76 12.36Q28.01 12.46 28.36 12.46L28.36 12.46Q29.07 12.46 29.36 12.09Q29.65 11.72 29.65 10.94L29.65 10.94ZM29.64 12.80L27.08 12.80Q26.78 12.80 26.50 12.70Q26.23 12.59 26.02 12.41Q25.81 12.22 25.68 11.97Q25.55 11.71 25.55 11.41L25.55 11.41L25.55 6.79Q25.55 6.48 25.67 6.20Q25.79 5.92 26.00 5.71Q26.21 5.51 26.49 5.39Q26.76 5.27 27.08 5.27L27.08 5.27L29.65 5.27L29.65 4.58Q29.65 4.12 29.73 3.81Q29.80 3.49 29.99 3.30Q30.17 3.11 30.46 3.03Q30.76 2.95 31.19 2.95L31.19 2.95L31.19 11.41Q31.19 11.79 31.09 12.05Q30.99 12.31 30.79 12.48Q30.59 12.64 30.30 12.72Q30.01 12.80 29.64 12.80L29.64 12.80ZM32.92 13.51L33.33 13.51Q33.35 13.83 33.46 14.05Q33.56 14.27 33.74 14.41Q33.93 14.55 34.21 14.61Q34.49 14.67 34.87 14.67L34.87 14.67L35.50 14.67Q36.22 14.67 36.62 14.44Q37.01 14.21 37.01 13.62L37.01 13.62L37.01 12.80L34.36 12.80Q34.06 12.80 33.80 12.68Q33.54 12.56 33.34 12.35Q33.15 12.14 33.03 11.87Q32.92 11.59 32.92 11.29L32.92 11.29L32.92 6.79Q32.92 6.48 33.03 6.20Q33.13 5.93 33.33 5.72Q33.52 5.51 33.78 5.39Q34.05 5.27 34.36 5.27L34.36 5.27L38.58 5.27L38.58 13.62Q38.58 14.01 38.47 14.27Q38.37 14.54 38.17 14.70Q37.97 14.87 37.68 14.94Q37.39 15.01 37.01 15.01L37.01 15.01L34.36 15.01Q33.89 15.01 33.60 14.86Q33.32 14.70 33.17 14.48Q33.02 14.25 32.97 13.99Q32.92 13.73 32.92 13.51L32.92 13.51ZM35.73 12.46L35.73 12.46Q36.44 12.46 36.72 12.09Q37.01 11.73 37.01 10.96L37.01 10.96L37.01 5.61L36.00 5.61Q35.57 5.61 35.27 5.69Q34.97 5.77 34.79 5.95Q34.60 6.13 34.52 6.42Q34.44 6.71 34.44 7.14L34.44 7.14L34.44 10.96Q34.44 11.73 34.73 12.09Q35.03 12.46 35.73 12.46ZM43.11 5.63L43.11 5.63Q42.40 5.63 42.11 5.98Q41.82 6.34 41.82 7.12L41.82 7.12L41.82 7.77L44.41 7.77L44.41 7.12Q44.41 6.73 44.34 6.45Q44.28 6.17 44.12 5.98Q43.97 5.80 43.72 5.71Q43.48 5.63 43.11 5.63ZM45.93 8.11L41.82 8.11L41.82 10.95Q41.82 11.38 41.90 11.67Q41.98 11.96 42.16 12.14Q42.34 12.32 42.64 12.40Q42.94 12.48 43.37 12.48L43.37 12.48L43.44 12.48Q43.87 12.48 44.17 12.40Q44.46 12.32 44.65 12.14Q44.83 11.96 44.91 11.67Q44.99 11.38 44.99 10.95L44.99 10.95L44.99 10.30L45.38 10.30L45.38 11.29Q45.38 11.51 45.33 11.78Q45.28 12.04 45.12 12.27Q44.97 12.50 44.67 12.65Q44.37 12.80 43.86 12.80L43.86 12.80L41.82 12.80Q41.54 12.80 41.27 12.67Q41.00 12.54 40.79 12.33Q40.57 12.11 40.44 11.84Q40.30 11.57 40.30 11.29L40.30 11.29L40.30 6.79Q40.30 6.49 40.43 6.22Q40.55 5.95 40.76 5.75Q40.97 5.54 41.24 5.42Q41.51 5.29 41.82 5.27L41.82 5.27L44.41 5.27Q44.73 5.27 45.00 5.39Q45.28 5.51 45.49 5.72Q45.69 5.93 45.81 6.20Q45.93 6.48 45.93 6.79L45.93 6.79L45.93 8.11ZM52.87 2.95L52.87 7.75L56.73 3.37Q56.79 3.31 56.86 3.24Q56.94 3.17 57.04 3.10Q57.13 3.04 57.26 2.99Q57.39 2.95 57.57 2.95L57.57 2.95L58.01 2.95Q58.04 2.95 58.04 2.97Q58.03 2.99 58.01 2.99L58.01 2.99Q57.75 2.99 57.59 3.08Q57.42 3.17 57.24 3.37L57.24 3.37L54.04 6.96L57.87 12.12Q57.95 12.24 58.04 12.35Q58.13 12.47 58.23 12.56Q58.32 12.65 58.44 12.71Q58.56 12.78 58.71 12.78L58.71 12.78Q58.73 12.78 58.73 12.80L58.73 12.80Q58.73 12.80 58.71 12.80L58.71 12.80L57.46 12.80Q57.14 12.80 56.94 12.79Q56.74 12.78 56.57 12.69Q56.41 12.61 56.25 12.44Q56.10 12.26 55.87 11.94L55.87 11.94L52.87 7.79L52.87 11.22Q52.87 11.67 52.80 11.97Q52.73 12.27 52.55 12.46Q52.38 12.64 52.08 12.72Q51.78 12.80 51.33 12.80L51.33 12.80L51.33 4.58Q51.33 4.12 51.41 3.81Q51.50 3.50 51.68 3.31Q51.86 3.12 52.15 3.04Q52.45 2.95 52.87 2.95L52.87 2.95ZM61.93 5.63L61.93 5.63Q61.22 5.63 60.92 5.98Q60.63 6.34 60.63 7.12L60.63 7.12L60.63 7.77L63.23 7.77L63.23 7.12Q63.23 6.73 63.16 6.45Q63.09 6.17 62.94 5.98Q62.78 5.80 62.54 5.71Q62.29 5.63 61.93 5.63ZM64.74 8.11L60.63 8.11L60.63 10.95Q60.63 11.38 60.71 11.67Q60.79 11.96 60.97 12.14Q61.15 12.32 61.45 12.40Q61.75 12.48 62.18 12.48L62.18 12.48L62.25 12.48Q62.69 12.48 62.98 12.40Q63.27 12.32 63.46 12.14Q63.64 11.96 63.72 11.67Q63.80 11.38 63.80 10.95L63.80 10.95L63.80 10.30L64.19 10.30L64.19 11.29Q64.19 11.51 64.14 11.78Q64.09 12.04 63.94 12.27Q63.78 12.50 63.48 12.65Q63.18 12.80 62.67 12.80L62.67 12.80L60.63 12.80Q60.35 12.80 60.08 12.67Q59.81 12.54 59.60 12.33Q59.38 12.11 59.25 11.84Q59.12 11.57 59.12 11.29L59.12 11.29L59.12 6.79Q59.12 6.49 59.24 6.22Q59.36 5.95 59.58 5.75Q59.79 5.54 60.06 5.42Q60.33 5.29 60.63 5.27L60.63 5.27L63.23 5.27Q63.54 5.27 63.82 5.39Q64.09 5.51 64.30 5.72Q64.50 5.93 64.62 6.20Q64.74 6.48 64.74 6.79L64.74 6.79L64.74 8.11ZM70.21 5.27L70.21 5.27Q70.52 5.27 70.80 5.39Q71.08 5.51 71.29 5.72Q71.50 5.93 71.63 6.21Q71.76 6.49 71.76 6.80L71.76 6.80L71.76 11.20Q71.76 11.65 71.69 11.96Q71.61 12.26 71.44 12.45Q71.26 12.64 70.96 12.72Q70.66 12.80 70.21 12.80L70.21 12.80L70.21 7.13Q70.21 6.34 69.91 5.98Q69.60 5.62 68.94 5.62L68.94 5.62L67.67 5.62L67.67 11.20Q67.67 11.65 67.60 11.96Q67.53 12.26 67.34 12.45Q67.16 12.64 66.86 12.72Q66.56 12.80 66.11 12.80L66.11 12.80L66.11 5.27L68.94 5.27L70.21 5.27ZM77.59 5.27L77.59 5.27Q77.90 5.27 78.18 5.39Q78.46 5.51 78.67 5.72Q78.88 5.93 79.01 6.21Q79.13 6.49 79.13 6.80L79.13 6.80L79.13 11.20Q79.13 11.65 79.06 11.96Q78.99 12.26 78.81 12.45Q78.64 12.64 78.34 12.72Q78.04 12.80 77.59 12.80L77.59 12.80L77.59 7.13Q77.59 6.34 77.28 5.98Q76.98 5.62 76.32 5.62L76.32 5.62L75.04 5.62L75.04 11.20Q75.04 11.65 74.97 11.96Q74.90 12.26 74.72 12.45Q74.54 12.64 74.24 12.72Q73.94 12.80 73.49 12.80L73.49 12.80L73.49 5.27L76.32 5.27L77.59 5.27ZM83.67 5.63L83.67 5.63Q82.96 5.63 82.67 5.98Q82.37 6.34 82.37 7.12L82.37 7.12L82.37 7.77L84.97 7.77L84.97 7.12Q84.97 6.73 84.90 6.45Q84.83 6.17 84.68 5.98Q84.53 5.80 84.28 5.71Q84.03 5.63 83.67 5.63ZM86.49 8.11L82.37 8.11L82.37 10.95Q82.37 11.38 82.46 11.67Q82.54 11.96 82.72 12.14Q82.90 12.32 83.20 12.40Q83.49 12.48 83.92 12.48L83.92 12.48L84 12.48Q84.43 12.48 84.72 12.40Q85.02 12.32 85.20 12.14Q85.39 11.96 85.47 11.67Q85.54 11.38 85.54 10.95L85.54 10.95L85.54 10.30L85.93 10.30L85.93 11.29Q85.93 11.51 85.89 11.78Q85.84 12.04 85.68 12.27Q85.52 12.50 85.22 12.65Q84.92 12.80 84.42 12.80L84.42 12.80L82.37 12.80Q82.10 12.80 81.83 12.67Q81.56 12.54 81.34 12.33Q81.13 12.11 81.00 11.84Q80.86 11.57 80.86 11.29L80.86 11.29L80.86 6.79Q80.86 6.49 80.99 6.22Q81.11 5.95 81.32 5.75Q81.53 5.54 81.80 5.42Q82.07 5.29 82.37 5.27L82.37 5.27L84.97 5.27Q85.29 5.27 85.56 5.39Q85.84 5.51 86.04 5.72Q86.25 5.93 86.37 6.20Q86.49 6.48 86.49 6.79L86.49 6.79L86.49 8.11ZM89.40 2.94L89.40 2.94L89.40 10.94Q89.40 11.22 89.40 11.55Q89.40 11.87 89.48 12.14Q89.56 12.41 89.75 12.58Q89.93 12.76 90.30 12.76L90.30 12.76Q90.32 12.76 90.32 12.78L90.32 12.78Q90.32 12.80 90.30 12.80L90.30 12.80L89.38 12.80Q88.85 12.80 88.54 12.68Q88.24 12.56 88.08 12.36Q87.93 12.15 87.89 11.87Q87.86 11.59 87.86 11.27L87.86 11.27L87.86 4.57Q87.86 4.12 87.94 3.80Q88.02 3.49 88.20 3.29Q88.38 3.10 88.68 3.02Q88.97 2.94 89.40 2.94ZM92.87 5.27L92.87 5.27L95.29 5.27Q95.79 5.27 96.07 5.42Q96.35 5.58 96.48 5.81Q96.61 6.04 96.63 6.30Q96.65 6.56 96.65 6.79L96.65 6.79L96.65 7.29L96.24 7.29Q96.18 6.92 96.03 6.62Q95.89 6.31 95.65 6.09Q95.42 5.87 95.10 5.74Q94.78 5.61 94.39 5.61L94.39 5.61L94.00 5.61Q93.58 5.61 93.30 5.68Q93.02 5.75 92.85 5.91Q92.68 6.06 92.61 6.32Q92.54 6.58 92.54 6.96L92.54 6.96Q92.54 7.25 92.71 7.46Q92.87 7.67 93.15 7.83Q93.43 7.99 93.79 8.11Q94.15 8.24 94.53 8.34Q94.91 8.44 95.28 8.54Q95.65 8.64 95.96 8.76L95.96 8.76Q96.17 8.84 96.36 8.98Q96.55 9.12 96.69 9.31Q96.82 9.50 96.90 9.72Q96.98 9.95 96.98 10.19L96.98 10.19L96.98 11.28Q96.98 11.59 96.86 11.87Q96.74 12.15 96.53 12.36Q96.33 12.56 96.04 12.68Q95.76 12.80 95.45 12.80L95.45 12.80L93.28 12.80Q92.77 12.80 92.40 12.71Q92.03 12.61 91.80 12.39Q91.57 12.17 91.46 11.82Q91.35 11.46 91.35 10.95L91.35 10.95L91.35 10.29L91.74 10.29L91.74 10.95Q91.74 11.38 91.82 11.67Q91.90 11.96 92.08 12.13Q92.26 12.31 92.56 12.39Q92.85 12.46 93.28 12.46L93.28 12.46L94.23 12.46Q94.66 12.46 94.96 12.41Q95.25 12.36 95.43 12.21Q95.61 12.06 95.69 11.80Q95.77 11.54 95.77 11.12L95.77 11.12L95.77 10.94Q95.77 10.60 95.58 10.39Q95.39 10.17 95.08 10.02Q94.77 9.88 94.37 9.78Q93.97 9.68 93.56 9.57Q93.15 9.45 92.75 9.31Q92.35 9.17 92.04 8.93Q91.73 8.70 91.54 8.35Q91.35 8.00 91.35 7.49L91.35 7.49L91.35 6.79Q91.35 6.47 91.47 6.20Q91.59 5.92 91.79 5.71Q92.00 5.51 92.27 5.39Q92.55 5.27 92.87 5.27Z"></path></g><!----><g data-v-423bf9ae="" id="21b5c0e8-94ca-4b6c-9713-9b4c507b2613" transform="matrix(1.4000558641221788,0,0,1.4000558641221788,0.20711941558242586,0.7937673290357594)" stroke="none" fill="#ffffff"><path d="M89.198 78.189a1 1 0 00.995-1.106c-.62-5.842.473-10.641.538-10.914a1 1 0 00-1.84-.77c-.221.438-1.333 5.812-.687 11.895.055.514.489.895.994.895z"></path><path d="M119.127 114.577c.048-1.717.158-5.628.219-7.602.037-1.161-.195-2.964-.489-5.245-.377-2.919-.846-6.551-.8-9.648.01-.687.013-1.271.015-1.792.017-3.584.019-4.044 2.486-14.561 1.947-8.303 1.073-14.086.436-18.309-.312-2.06-.58-3.838-.46-5.406.214-2.779-.283-5.089-.809-7.535-.463-2.156-.942-4.386-.942-7.098 0-5.589-4.575-11.556-5.771-13.015a131.52 131.52 0 00-.067-2.826c2.161-.16 3.846-1.82 3.921-3.869.044-1.168-.448-2.194-1.424-2.968-1.067-.846-1.878-2.774-2.594-4.475-.744-1.77-1.388-3.299-2.388-4.047-1.513-1.133-4.972-1.141-10.269-.027-1.234.26-2.044.959-2.583 1.755-2.385-.513-4.884-.435-7.361.227-1.263-1.444-5.157-5.75-8.01-7.337-1.973-1.096-4.003-1.066-5.299.082-1.208 1.069-1.478 2.821-.72 4.687 1.088 2.68 1.769 9.319 1.938 11.12a19.15 19.15 0 01-1.184 1.013c-1.331 1.073-2.841 2.29-4.031 4.772-1.416 2.952-.759 6.966.112 10.042-.791.82-3.685 3.08-11.571 3.08-1.747 0-3.371-.017-4.882-.032-7.581-.077-12.581-.127-16.324 2.17-1.255.77-2.513.839-3.969.92-2.943.163-6.607.365-11.796 6.204-5.47 6.153-7.673 11.08-9.131 14.339-.6 1.341-1.073 2.4-1.603 3.208-.571.872-2.135 2.924-4.313 3.136-1.518.147-3.113-.619-4.738-2.282-1.367-1.398-2.237-3.339-2.586-5.768a1 1 0 00-.984-.858H1.15a1 1 0 00-.988.846c-.022.145-2.069 14.137 9.047 16.941.586.147 1.217.22 1.865.22 1.128-.001 2.298-.239 3.389-.644-.047.392-.088.787-.12 1.185-.835 10.329-3.309 19.996-5.123 23.028-2.07 3.462-1.554 11.555-1.461 12.786a25.236 25.236 0 00-.675 5.881c0 6.737 1.129 7.695 5.296 7.695.611 0 1.463.06 2.449.128 1.348.094 2.819.197 4.229.197 2.327 0 4.482-.28 5.621-1.343a2.633 2.633 0 00.854-1.973c0-2.538-1.965-4.226-5.621-4.921.261-7.507 3.807-20.35 6.408-22.893 1.483-1.449 2.462-3.691 3.498-6.064 1.143-2.62 2.333-5.309 4.24-7.115.166-.059.429-.15.781-.263a88.732 88.732 0 011.55 9.024c-.13.785-.961 5.22-3.57 8.203a.999.999 0 00-.242.56c-.509 5.146-1.99 22.131.326 24.688.412.455.871.551 1.184.551.611 0 1.593.102 2.729.22 1.892.197 3.668.356 5.211.356 2.052 0 3.69-.282 4.638-1.136a2.455 2.455 0 00.828-1.872c0-2.572-2.686-4.15-4.903-5.014.104-2.094.69-8.922 1.192-11.824.55-3.183 5.729-8.348 9.518-12.128 3.287-3.278 3.891-9.308 3.991-12.053.531.196 1.057.411 1.578.65 1.495 1.792 3.435 3.177 7.035 4.293 3.965 1.228 6.27 1.669 7.479 1.826a23.806 23.806 0 00.108 3.942c.636 5.815 3.212 21.264 4.293 23.42.321.642.282 1.467.24 2.341-.056 1.165-.118 2.484.735 3.563.081.153-.03.771-.097 1.141-.177.986-.42 2.338.485 3.427.84 1.009 2.418 1.485 4.967 1.499l.975.003c4.177 0 6.846-.206 8.166-1.803 1.083-1.311.887-3.179.595-4.66-.291-1.473-1.093-2.656-2.26-3.437.066-1.246.06-4.279-.816-10.188-.871-5.874-.815-13.513.42-19.251 4.708-.509 8.508-1.188 11.187-1.999.735.695 2.397 2.524 3.276 5.552.576 1.983.395 4.426.186 7.253-.217 2.913-.462 6.215.067 9.843.336 2.309.5 4.786.486 7.368-.457.628-1.264 2.1-1.264 4.65 0 3.245 2.222 5.262 5.798 5.262.313 0 .727.012 1.211.025.799.023 1.613.04 2.423.04 3.476 0 6.858-.318 8.474-1.888.62-.603.947-1.368.947-2.213-.001-3.821-2.425-5.357-4.858-5.98zM77.965 4.463c2.201.44 4.88 3.378 6.352 5.283-2.678 1.16-4.086 2.388-4.4 3.818-.017.078-.041.142-.06.217-.34-2.851-.938-6.872-1.786-8.963-.049-.124-.069-.237-.106-.355zM72.11 41.218c.443.776 1.028 1.503 1.519 2.051-.368.906-.896 2.658-.764 5.024a2.522 2.522 0 01-.383-.524c-.926-1.657-.875-4.743-.372-6.551zm4.156 9.598c1.024.058 2.098.151 3.16.248 1.637.149 3.223.294 4.587.294.403 0 .779-.018 1.139-.047-1.054.205-2.201.38-3.462.483-2.388.196-4.173-.334-5.424-.978zm-1.222-8.972c-.942-1.091-1.696-2.318-1.649-2.648.002-.002.161-.117.729-.117.321 0 .773.037 1.403.152 1.59.291 1.946.649 1.985.649h.001c-.077.405-1.193 1.275-2.469 1.964zM51.878 90.541c-4.192 4.183-9.41 9.387-10.068 13.196-.068.393-1.024 7.893-1.164 11.528-.42-.113-.737-.185-.87-.213a1.001 1.001 0 00-.411 1.957c1.589.335 6.127 1.771 6.127 3.906a.46.46 0 01-.167.387c-1.133 1.021-5.797.536-8.303.275-1.073-.111-2.016-.209-2.714-.228-1.07-1.698-.728-12.907.229-22.733.964-1.162 1.698-2.473 2.255-3.731.069 3.066-.162 6.066-.953 8.445a1.001 1.001 0 001.898.631c2.546-7.656-.131-20.572-.973-24.201 3.976-1.059 11.422-2.434 18.538-.498-.037 2.102-.413 8.277-3.424 11.279zm14.616-7.612c-5.067-1.571-6.262-3.564-8.429-7.183-.328-.547-.675-1.126-1.057-1.74-2.669-4.291-7.766-6.121-9.439-6.723-.143-.052-.254-.09-.327-.119a1 1 0 00-1.347 1.413c.203.303.436.386.998.588 1.513.544 6.116 2.197 8.417 5.897.376.604.717 1.173 1.04 1.712.177.295.348.58.518.86l-.179-.059c-.029-.013-.059-.02-.089-.029-7.456-2.29-15.212-1.044-19.683.092 3.174-3.994 5.472-9.431 5.591-9.714a1 1 0 00-1.846-.772c-.034.081-3.463 8.198-7.454 11.497-.118.097-.222.209-.335.311a.91.91 0 00-.12.112c-2.249 2.096-3.589 5.125-4.769 7.828-.956 2.189-1.858 4.258-3.063 5.436-3.165 3.095-6.669 16.406-6.999 24.057a27.736 27.736 0 00-2.34-.095 1 1 0 100 2c2.391 0 7.95.32 7.95 3.282a.632.632 0 01-.219.511c-1.192 1.111-5.672.8-8.346.612-1.023-.071-1.908-.133-2.589-.133-2.856 0-3.296 0-3.296-5.695 0-6.685 2.614-11.297 5.44-15.284 3.365-4.749 3.156-10.167 3.146-10.396a1.012 1.012 0 00-1.045-.953 1 1 0 00-.953 1.045c.002.049.192 4.953-2.78 9.147-1.155 1.63-2.275 3.362-3.22 5.282.099-2.481.431-5.086 1.266-6.483 2.249-3.761 4.621-14.257 5.4-23.896.996-12.344 10.042-22.118 10.134-22.215 1.442-1.538 2.919-2.039 3.141-2.077 2.618 0 4.494-2.828 5.426-8.178l.022-.127a1 1 0 00-1.921-.552 3.032 3.032 0 00-.072.335c-.7 4.022-2.024 6.521-3.455 6.521-.645 0-2.698.682-4.6 2.708-.087.093-7.934 8.572-10.172 19.88-1.534.884-3.591 1.235-5.141.844-5.221-1.317-6.992-5.591-7.525-9.194.337.494.711.952 1.123 1.373 2.07 2.118 4.213 3.081 6.362 2.874 2.93-.285 4.887-2.647 5.793-4.03.616-.941 1.144-2.121 1.755-3.487 1.491-3.336 3.535-7.905 8.799-13.827 4.637-5.216 7.572-5.378 10.412-5.536 1.582-.087 3.219-.178 4.905-1.213 3.253-1.996 7.769-1.948 15.257-1.875 1.518.015 3.147.032 4.902.032 7.067 0 10.576-1.695 12.231-2.982.201.577.384 1.064.534 1.459-1.4.797-2.485 1.646-3.381 3.011-1.304 1.987-1.601 7.029-.128 9.661.474.847 1.102 1.44 1.863 1.756.277.315.833.878 1.684 1.456-.505 2.27-1.993 9.516-1.352 13.488.229 1.421.493 2.817.751 4.173.547 2.889 1.064 5.617 1.091 7.903.014 1.212-.257 2.434-.57 3.849-.217.981-.453 2.073-.624 3.3-1.078-.142-3.268-.555-7.086-1.738zm22.448 32.199c-2.963-.395-5.985 1.047-7.17 3.434a.999.999 0 101.791.889c.803-1.616 2.992-2.617 5.114-2.34.819.11 2.773.604 3.209 2.813.304 1.536.248 2.489-.173 2.999-.852 1.029-3.817 1.096-7.588 1.074-2.441-.013-3.204-.493-3.44-.777-.289-.348-.209-.937-.055-1.795.161-.898.344-1.916-.3-2.729-.393-.496-.354-1.301-.31-2.232.05-1.042.105-2.224-.45-3.333-.827-1.649-3.392-16.322-4.093-22.74-.404-3.701.171-6.297.679-8.587.326-1.472.634-2.861.617-4.305-.028-2.462-.562-5.274-1.126-8.252-.254-1.338-.516-2.717-.741-4.119-.535-3.32.653-9.553 1.212-12.179 1.213.509 2.728.889 4.575.889.373 0 .76-.016 1.159-.048 2.471-.202 4.516-.65 6.243-1.094.701 1.899 2.682 6.208 6.833 8.684.349 1.109.614 2.302.539 3.568-.358 6.021-1.732 11.136-4.081 15.2-.826 1.428-1.476 3.237-1.97 5.274-.01.03-.024.055-.032.088-.005.019.001.037-.003.056-1.469 6.181-1.51 14.425-.588 20.641.713 4.81.83 7.626.819 9.059-.219-.053-.438-.106-.67-.138zm4.619-58.672c0 .503.095 1.02.235 1.548-2.075-2.018-3.237-4.497-3.753-5.828 1.449-.391 2.633-.683 3.571-.618.193.013.402.022.624.025-.286 1.325-.677 3.408-.677 4.873zm-.443 24.691c2.506-4.336 3.969-9.747 4.346-16.082.135-2.273-.592-4.272-1.175-5.878-.391-1.075-.729-2.003-.729-2.731 0-1.486.492-3.848.751-4.99 2.091-.239 4.585-.883 6.576-2.171 1.481 1.141 4.136 3.557 4.54 5.647.246 1.278-.006 2.588-.273 3.976-.359 1.861-.73 3.786.216 5.614.577 1.115.708 3.007.847 5.008.165 2.373.351 5.062 1.369 7.162.122.251.218.484.324.724-.799.909-2.884 3.045-5.985 4.533-2.198 1.054-6.524 1.979-12.215 2.631.39-1.32.857-2.49 1.408-3.443zm28.525 40.186c-1.553 1.509-7.086 1.351-9.446 1.283a46.726 46.726 0 00-1.268-.026c-1.732 0-3.798-.565-3.798-3.262 0-2.517.939-3.555.967-3.585a.997.997 0 00.294-.696c.031-2.812-.138-5.512-.505-8.026-.497-3.41-.261-6.596-.052-9.406.224-3.02.418-5.628-.26-7.959-.795-2.738-2.155-4.637-3.145-5.743.116-.051.252-.1.36-.152 2.731-1.311 4.738-3.06 5.906-4.247.556 1.802.604 2.945.604 2.958a1 1 0 001 .984h.016a1 1 0 00.984-1.016c-.002-.112-.064-2.799-1.915-6.613-.849-1.752-1.014-4.128-1.173-6.427-.153-2.215-.298-4.306-1.066-5.79-.627-1.211-.349-2.649-.028-4.315.278-1.442.594-3.077.273-4.733-.522-2.705-3.392-5.33-4.924-6.565.375-.391.712-.817.992-1.289 3.059-.53 8.184-2.819 8.624-8.403a1.001 1.001 0 00-.919-1.076 1.007 1.007 0 00-1.075.918c-.295 3.747-3.223 5.416-5.304 6.137.48-.655.957-1.046 1.451-1.446.938-.759 1.908-1.543 2.528-3.828a1 1 0 10-1.93-.524c-.451 1.66-1.04 2.137-1.856 2.797-.877.709-1.969 1.592-2.974 3.902-1.643 3.776-8.097 4.533-10.251 4.377-1.377-.094-2.842.302-4.698.807a81.52 81.52 0 01-2.13.555c.977-.416 1.701-1.261 2.393-2.099 1.432-1.737 2.276-2.594 4.367-1.474 2.477 1.323 4.463.812 5.694.147 2.083-1.125 3.642-3.635 3.877-6.247.309-3.417 1.027-3.735 1.264-3.839a1 1 0 00-.81-1.829c-1.442.639-2.15 2.229-2.445 5.489-.175 1.941-1.341 3.86-2.835 4.667-1.163.628-2.441.576-3.801-.151-3.634-1.942-5.571.409-6.854 1.966-.594.72-1.155 1.4-1.714 1.586-1.234.411-3.889.169-6.455-.066-1.588-.146-3.212-.288-4.682-.306-.267-2.553.37-4.332.643-4.94 1.482-.73 4.17-2.324 3.931-4.181-.191-1.486-1.93-2.045-3.347-2.328.457-.235.947-.477 1.491-.743.498-.244 1.031-.505 1.604-.793 3.464-1.747 3.128-5.674 2.466-7.506a1 1 0 00-1.881.679c.054.148 1.279 3.646-1.485 5.04-.564.285-1.091.542-1.582.783l-.725.357c-2.008-5.409-2.453-9.383-1.297-11.794.996-2.075 2.261-3.095 3.483-4.081.584-.471 1.174-.952 1.715-1.53a.645.645 0 00.025-.029c.824-.887 1.529-2.008 1.903-3.709.088-.401.689-1.482 4.363-2.864a1.002 1.002 0 00.476-1.496c-.494-.731-4.488-6.452-8.522-7.149.029-.031.043-.075.076-.104.635-.561 1.812-.493 3.002.168 2.228 1.239 5.356 4.544 6.912 6.272l-.065.024-.086.035a1 1 0 00.286 1.958c.209 0 .346-.056.555-.141 2.641-1.075 5.356-1.387 7.919-.923a7.138 7.138 0 00-.23 1.427.998.998 0 00.961 1.032h.039c.533 0 .976-.423.998-.96.001-.028.138-2.758 2.05-3.161 5.238-1.103 7.906-.892 8.659-.329.564.423 1.19 1.909 1.742 3.221.809 1.922 1.725 4.102 3.194 5.267.476.377.688.798.668 1.326-.038 1.015-.951 1.872-2.079 1.951-2 .138-3.515-.558-4.51-2.076a25.866 25.866 0 00-1.936-2.607c-.016-.019-.03-.037-.046-.054a41.423 41.423 0 00-.549-.631c-.926-1.054-1.537-1.75-2.326-3.893-.147-.401-.491-.675-.964-.654-.159.004-1.578.073-2.433 1.246-.64.879-.745 2.065-.314 3.525.437 1.481 1.328 2.129 1.999 2.412 1.277.538 2.697.199 3.553-.114.356.447.752.984 1.199 1.653.027.661.006 2.642-1.076 4.231a.999.999 0 00.827 1.562c.32 0 .634-.153.828-.438.748-1.1 1.112-2.315 1.283-3.348.765.54 1.648.893 2.615 1.069.119 3.539.097 6.32-.061 8.334-1.941-2.536-4.237-4.214-4.381-4.318a1 1 0 00-1.169 1.624c.049.035 4.841 3.531 6.01 7.772a1 1 0 101.928-.531c-.18-.653-.43-1.284-.724-1.891.27-1.277.398-3.011.449-4.771 1.644 2.418 3.794 6.3 3.794 9.732 0 2.925.502 5.26.987 7.519.494 2.3.961 4.472.77 6.961-.138 1.794.146 3.678.477 5.858.647 4.289 1.454 9.625-.405 17.553-2.52 10.737-2.522 11.307-2.539 15.009-.002.515-.005 1.093-.015 1.771-.047 3.241.432 6.952.815 9.934.272 2.105.507 3.925.475 4.927-.058 1.872-.16 5.486-.211 7.322a22.873 22.873 0 00-2.215-.088 1 1 0 100 2c6.225 0 7.063 2.229 7.063 4.408 0 .309-.106.549-.341.778zM103.836 15.029c-.46.09-.954.11-1.351-.058-.401-.169-.682-.54-.857-1.135-.236-.802-.234-1.432.008-1.773a.854.854 0 01.245-.228c.654 1.561 1.261 2.383 1.955 3.194z"></path><path d="M88.375 15.163a1 1 0 10-1.981-.276c-.244 1.735-1.02 4.463-1.979 5.093-1.198.788-2.428 2.135-3.193 3.052a3.659 3.659 0 00-1.498-.755c-1.964-.473-3.915.67-4.131.802a1 1 0 101.045 1.706c.363-.222 1.631-.801 2.616-.564.475.114.85.407 1.147.896a1 1 0 00.809.478l.045.001a1 1 0 00.804-.405c.019-.025 1.849-2.483 3.456-3.54 2.049-1.347 2.742-5.641 2.86-6.488zM86.167 32.456a1.002 1.002 0 001.242.567 1 1 0 00.575-1.402c-.324-.723-1.842-4.449.165-6.833 1.964-2.329 5.729.783 5.768.814a1 1 0 001.289-1.529c-.116-.097-2.858-2.379-5.606-2.146-1.184.101-2.186.63-2.979 1.573-2.704 3.209-1.044 7.638-.454 8.956zM89.332 42.18c-1.525.496-2.742 2.081-3.632 3.237-.224.292-.528.688-.653.802a1 1 0 00.994 1.736c.395-.209.715-.627 1.246-1.318.688-.896 1.729-2.25 2.665-2.554 1.426-.464 3.478-.635 4.56.411a1 1 0 101.391-1.437c-1.459-1.412-3.913-1.74-6.571-.877z"></path><path d="M92.585 27.168c-1.269 0-2.298 1.026-2.298 2.292s1.029 2.292 2.298 2.292 2.298-1.026 2.298-2.292-1.028-2.292-2.298-2.292zM76.479 27.812a1.65 1.65 0 00-1.653 1.649c0 .911.74 1.649 1.653 1.649s1.653-.738 1.653-1.649a1.65 1.65 0 00-1.653-1.649z"></path></g><!----></svg>